<svg width="278" height="305" viewBox="0 0 278 305" fill="none" xmlns="http://www.w3.org/2000/svg">
<g filter="url(#filter0_d_137_17574)">
<path d="M70.8235 198.926H40.711C36.9992 198.926 33.9902 201.927 33.9902 205.629V209.104C33.9902 212.806 36.9992 215.807 40.711 215.807H70.8235C74.5353 215.807 77.5443 212.806 77.5443 209.104V205.629C77.5443 201.927 74.5353 198.926 70.8235 198.926Z" stroke="#0F69A5" stroke-width="9" stroke-miterlimit="10"/>
<path d="M126.917 160.538C120.467 160.18 114.948 165.104 114.588 171.536C114.229 177.968 119.166 183.473 125.615 183.832L181.39 186.932C187.839 187.291 193.359 182.367 193.718 175.935C194.078 169.502 189.141 163.997 182.691 163.639L126.917 160.538Z" fill="#807D7D"/>
<path d="M102.962 123.719L101.089 124.655C95.8309 127.282 93.7038 133.663 96.338 138.907L115.84 177.732C118.474 182.976 124.872 185.098 130.13 182.47L132.003 181.535C137.261 178.907 139.388 172.526 136.754 167.282L117.252 128.457C114.618 123.213 108.22 121.092 102.962 123.719Z" fill="#807D7D"/>
<path d="M111.497 212.112H12.1976C7.67018 212.112 4 215.772 4 220.288V287.157C4 291.672 7.67018 295.333 12.1976 295.333H111.497C116.025 295.333 119.695 291.672 119.695 287.157V220.288C119.695 215.772 116.025 212.112 111.497 212.112Z" fill="#0F69A5"/>
<path d="M114.499 212.112H109.119C106.25 212.112 103.924 214.432 103.924 217.293V290.151C103.924 293.013 106.25 295.333 109.119 295.333H114.499C117.368 295.333 119.694 293.013 119.694 290.151V217.293C119.694 214.432 117.368 212.112 114.499 212.112Z" fill="#FFD37C"/>
<path d="M171.206 183.787C172.807 183.805 174.39 184.138 175.863 184.766C177.336 185.394 178.67 186.305 179.79 187.448C180.91 188.59 181.793 189.942 182.39 191.425C182.986 192.908 183.283 194.493 183.265 196.091L182.58 256.35C182.543 259.577 181.223 262.657 178.909 264.912C176.596 267.168 173.478 268.415 170.243 268.378L158.046 268.24L158.869 195.818C158.906 192.592 160.226 189.512 162.54 187.256C164.853 185.001 167.971 183.754 171.206 183.791L171.206 183.787Z" fill="#33AEE5"/>
<path d="M209.188 288.874L156.295 289.055L155.883 264.308L170.009 264.259L169.185 256.042L183.527 254.614L184.487 264.228C188.49 264.316 192.415 265.35 195.939 267.246C199.463 269.142 202.485 271.846 204.758 275.134C205.037 275.541 205.309 275.952 205.564 276.377C207.865 280.147 209.116 284.461 209.188 288.874Z" fill="#FFD37C"/>
<path d="M175.035 264.242L183.854 264.214C187.965 264.202 192.016 265.191 195.658 267.093C199.3 268.995 202.421 271.754 204.753 275.13C185.733 281.314 175.14 265.467 175.14 265.467C175.079 265.061 175.044 264.652 175.035 264.242Z" fill="#EA636A"/>
<path d="M91.6328 193.629V181.463H171.304C172.906 181.463 174.493 181.778 175.973 182.389C177.453 183.001 178.797 183.897 179.93 185.027C181.063 186.156 181.961 187.497 182.574 188.974C183.188 190.45 183.503 192.032 183.503 193.629C183.503 196.856 182.218 199.951 179.93 202.232C177.642 204.514 174.54 205.796 171.304 205.796H103.831C100.596 205.796 97.4934 204.514 95.2057 202.232C92.918 199.951 91.6328 196.856 91.6328 193.629Z" fill="#33AEE5"/>
<path d="M143.276 190.403C144.878 190.421 146.46 190.754 147.933 191.382C149.406 192.01 150.741 192.921 151.861 194.064C152.98 195.206 153.864 196.558 154.46 198.041C155.056 199.524 155.354 201.109 155.335 202.707L154.65 262.967C154.632 264.564 154.298 266.142 153.668 267.612C153.039 269.081 152.125 270.412 150.979 271.528C149.834 272.645 148.479 273.526 146.992 274.121C145.505 274.715 143.916 275.012 142.314 274.994L130.116 274.856L130.94 202.434C130.957 200.836 131.291 199.257 131.92 197.788C132.55 196.319 133.463 194.987 134.609 193.87C135.755 192.753 137.11 191.872 138.597 191.277C140.084 190.682 141.674 190.385 143.276 190.403Z" fill="#34B5FA"/>
<path d="M66.4355 200.799L66.4355 188.427H143.244C146.425 188.427 149.475 189.688 151.724 191.931C153.973 194.174 155.237 197.216 155.237 200.388V200.799C155.237 203.971 153.973 207.014 151.724 209.257C149.475 211.5 146.425 212.76 143.244 212.76H78.4317C76.8565 212.76 75.2966 212.451 73.8412 211.85C72.3858 211.25 71.0633 210.369 69.9494 209.258C68.8354 208.147 67.9517 206.828 67.3488 205.377C66.7459 203.926 66.4355 202.37 66.4355 200.799Z" fill="#34B5FA"/>
<path d="M137.647 142.6L126.884 182.09C126.458 183.67 125.577 185.091 124.352 186.178C123.126 187.265 121.608 187.97 119.985 188.208L118.477 193.727C118.289 194.434 117.963 195.096 117.517 195.677C117.071 196.257 116.514 196.744 115.878 197.108C115.243 197.473 114.541 197.708 113.814 197.801C113.086 197.893 112.348 197.841 111.641 197.648L70.37 186.24C68.9403 185.836 67.7289 184.884 66.9997 183.593C66.2705 182.301 66.0827 180.775 66.4772 179.346L67.8423 174.328C66.1151 173.44 64.7461 171.986 63.9645 170.212C63.1828 168.437 63.0358 166.449 63.548 164.579L74.3082 125.089C74.5915 124.027 75.0826 123.032 75.753 122.161C76.4235 121.29 77.2601 120.559 78.2148 120.012C79.1695 119.464 80.2233 119.11 81.3157 118.97C82.408 118.831 83.5173 118.908 84.5796 119.197L131.786 132.244C133.936 132.849 135.759 134.277 136.857 136.217C137.955 138.157 138.239 140.452 137.647 142.6Z" fill="#0F69A5"/>
<path d="M126.035 107.309C125.937 108.505 125.367 109.612 124.45 110.388C123.534 111.164 122.346 111.546 121.148 111.45C120.913 111.431 120.679 111.394 120.449 111.342L120.32 112.884C120.32 112.909 120.32 112.929 120.32 112.954L118.959 129.441C118.857 130.672 118.513 131.87 117.946 132.968C117.38 134.066 116.602 135.042 115.657 135.84C113.75 137.452 111.278 138.242 108.787 138.037C106.295 137.831 103.987 136.647 102.371 134.744C100.755 132.842 99.9623 130.377 100.168 127.892L100.762 120.736L98.3494 120.534C97.1128 120.432 95.9085 120.089 94.8051 119.522C93.7018 118.956 92.7211 118.179 91.919 117.235C91.1169 116.291 90.5092 115.198 90.1305 114.02C89.7518 112.841 89.6095 111.6 89.7119 110.367L90.9024 95.9336C91.0041 94.7001 91.3485 93.4985 91.916 92.3977C92.4834 91.2969 93.2628 90.3184 94.2095 89.5181C95.1562 88.7178 96.2518 88.1114 97.4335 87.7334C98.6153 87.3555 99.8602 87.2135 101.097 87.3156L112.859 88.2801C115.357 88.4868 117.671 89.6742 119.291 91.5815C120.911 93.4888 121.706 95.9597 121.5 98.4512L121.172 102.424C121.405 102.409 121.638 102.409 121.87 102.424C122.466 102.471 123.046 102.635 123.578 102.906C124.11 103.177 124.583 103.551 124.97 104.004C125.357 104.458 125.65 104.984 125.833 105.551C126.016 106.118 126.085 106.716 126.035 107.309Z" fill="#807D7D"/>
<path d="M107.688 121.3C105.314 123.738 100.311 126.105 100.311 126.105L100.75 120.736L107.688 121.3Z" fill="#0D2D4B"/>
<path d="M109.717 92.4866L90.7832 97.6331L91.087 93.8655C92.2398 93.946 93.3965 93.781 94.4805 93.3815C94.5817 93.3432 97.1479 93.3223 97.2526 93.3014L108.219 92.2951C108.725 92.1834 109.255 92.2511 109.717 92.4866Z" fill="#0D2D4B"/>
<path d="M123.018 105.666C123.018 105.666 124.257 106.961 120.26 106.909" stroke="#0F3F70" stroke-miterlimit="10"/>
<path d="M122.891 109.322C122.891 109.322 123.411 107.271 121.494 106.94" stroke="#0F3F70" stroke-miterlimit="10"/>
<path d="M66.1191 180.739H128.181V195.165C128.181 198.179 126.98 201.07 124.843 203.202C122.706 205.333 119.807 206.53 116.785 206.53H77.5148C74.4924 206.53 71.5939 205.333 69.4568 203.202C67.3197 201.07 66.1191 198.179 66.1191 195.165V180.739Z" fill="#34B5FA"/>
<path d="M111.334 184.952L111.439 192.961C111.448 193.644 111.321 194.321 111.066 194.954C110.81 195.588 110.431 196.164 109.95 196.65C109.469 197.136 108.897 197.522 108.265 197.785C107.634 198.049 106.956 198.184 106.271 198.184V198.184" stroke="#0D2D4B" stroke-miterlimit="10"/>
<path d="M146.408 80.5918C146.209 83.3175 145.313 85.947 143.807 88.23C142.301 90.5131 140.234 92.3738 137.803 93.6351C135.372 94.8964 132.657 95.5163 129.918 95.436C127.179 95.3556 124.506 94.5775 122.154 93.1759L121.529 100.728C121.525 100.788 121.518 100.847 121.508 100.906L120.625 106.293C120.532 106.859 120.229 107.37 119.777 107.725C119.324 108.08 118.755 108.252 118.181 108.208L117.699 108.166C117.093 108.115 116.532 107.825 116.139 107.362C115.746 106.899 115.554 106.299 115.604 105.694L115.981 101.125C116.031 100.521 115.838 99.9214 115.446 99.4581C115.053 98.9949 114.492 98.7054 113.887 98.6531L112.968 98.58C112.668 98.555 112.376 98.4712 112.108 98.3334C111.84 98.1956 111.602 98.0065 111.407 97.7769C111.213 97.5473 111.065 97.2817 110.974 96.9953C110.882 96.7089 110.848 96.4073 110.874 96.1078L110.985 94.7149C111.024 94.2601 110.926 93.804 110.702 93.4055C110.479 93.0071 110.141 92.6845 109.732 92.4795C109.275 92.2436 108.751 92.1723 108.248 92.2775L97.268 93.2943C97.1632 93.3152 94.5971 93.3361 94.4959 93.3744C93.4119 93.7739 92.2551 93.9388 91.1023 93.8584C85.1147 93.3291 83.198 84.6658 89.0599 77.2908C95.0231 69.7835 101.126 74.4738 101.175 79.5089C101.175 80.6997 101.901 82.3293 103.084 82.4268L114.857 83.3983C114.281 81.1499 114.202 78.8035 114.625 76.5215C115.048 74.2395 115.964 72.0765 117.308 70.1822C118.652 68.2878 120.392 66.7073 122.409 65.5501C124.426 64.3929 126.671 63.6866 128.989 63.4802C131.306 63.2737 133.641 63.5719 135.832 64.3543C138.022 65.1366 140.016 66.3843 141.676 68.0111C143.335 69.6379 144.62 71.6049 145.442 73.7759C146.264 75.9469 146.603 78.2702 146.436 80.5848L146.408 80.5918Z" fill="#FFD37C"/>
<path d="M94.1529 104.029C95.5026 104.029 96.5968 102.938 96.5968 101.592C96.5968 100.246 95.5026 99.1546 94.1529 99.1546C92.8032 99.1546 91.709 100.246 91.709 101.592C91.709 102.938 92.8032 104.029 94.1529 104.029Z" fill="#0F3F70"/>
<path d="M100.604 104.28C101.954 104.28 103.048 103.189 103.048 101.843C103.048 100.497 101.954 99.4056 100.604 99.4056C99.2543 99.4056 98.1602 100.497 98.1602 101.843C98.1602 103.189 99.2543 104.28 100.604 104.28Z" fill="#0F3F70"/>
<path d="M181.036 192.995C180.769 193.152 180.487 193.281 180.195 193.382C179.208 193.72 178.134 193.708 177.155 193.348C176.175 192.988 175.35 192.303 174.818 191.408L173.771 189.632L166.624 177.626C166.301 177.114 166.085 176.543 165.987 175.946C165.889 175.35 165.912 174.74 166.055 174.152C166.197 173.565 166.456 173.012 166.817 172.526C167.177 172.039 167.631 171.63 168.153 171.322C168.674 171.014 169.252 170.813 169.853 170.731C170.453 170.65 171.064 170.689 171.649 170.846C172.234 171.004 172.782 171.276 173.26 171.648C173.737 172.02 174.135 172.484 174.431 173.012L182.614 186.79C183.23 187.822 183.41 189.055 183.114 190.219C182.818 191.383 182.07 192.381 181.036 192.995Z" fill="#807D7D"/>
<path d="M79.0039 190.872V203.755H141.149V253.548" stroke="#0D2D4B" stroke-width="1.36" stroke-miterlimit="10" stroke-dasharray="16.33 16.33"/>
<path d="M154.021 193.452H171.174V251.459" stroke="#0D2D4B" stroke-width="1.36" stroke-miterlimit="10" stroke-dasharray="16.33 16.33"/>
<path d="M130.315 258.423C130.315 258.423 135.045 267.289 140.01 269.472H130.234L130.315 258.423Z" fill="#0D2D4B"/>
<path d="M158.131 264.134L170.137 264.197C170.137 264.197 160.121 258.364 158.316 249.861L158.131 264.134Z" fill="#0D2D4B"/>
<path d="M68.8978 107.062L59.1222 114.535L42.0427 156.643C41.476 158.076 40.6304 159.383 39.5547 160.488C38.4789 161.593 37.1944 162.475 35.7751 163.082C34.3559 163.69 32.8301 164.011 31.2857 164.027C29.7414 164.043 28.2092 163.754 26.7774 163.177C25.3457 162.599 24.0428 161.745 22.944 160.662C21.8452 159.58 20.9721 158.291 20.3753 156.87C19.7785 155.45 19.4698 153.925 19.4668 152.385C19.4639 150.845 19.7668 149.319 20.3582 147.896L41.3061 96.247C42.2954 93.8252 44.072 91.8052 46.3507 90.5114C48.6293 89.2175 51.2778 88.7248 53.8709 89.1124C56.464 89.5 58.8512 90.7454 60.6495 92.6486C62.4477 94.5518 63.5525 97.0025 63.7866 99.6072C64.608 99.11 65.5664 98.8856 66.5238 98.9663C67.4812 99.047 68.3883 99.4287 69.1143 100.056C69.3467 100.258 69.5584 100.482 69.7462 100.725C70.4748 101.678 70.7947 102.88 70.6357 104.068C70.4766 105.257 69.8517 106.333 68.8978 107.062Z" fill="#807D7D"/>
<path d="M25.642 142.107C20.048 145.328 18.1313 152.462 21.361 158.041C24.5908 163.621 31.7439 165.532 37.3379 162.311L85.7149 134.455C91.3089 131.233 93.2256 124.099 89.9958 118.52C86.7661 112.941 79.613 111.029 74.019 114.251L25.642 142.107Z" fill="#807D7D"/>
<path d="M119.926 239.749V212.69H77.1191C77.1191 212.69 117.905 223.161 119.926 239.749Z" fill="#0D2D4B"/>
<path d="M35.8847 231.836L27.877 222.012L13.3918 233.757L21.3995 243.581L35.8847 231.836Z" fill="#FFD37C"/>
<path d="M30.0076 265.697C36.7428 265.697 42.2028 260.252 42.2028 253.535C42.2028 246.817 36.7428 241.372 30.0076 241.372C23.2724 241.372 17.8125 246.817 17.8125 253.535C17.8125 260.252 23.2724 265.697 30.0076 265.697Z" fill="#EA636A"/>
<path d="M228.91 42.9476H221.941V295.639H228.91V42.9476Z" fill="#0F69A5"/>
<path d="M249.714 0H201.139L176.854 41.9552L201.139 83.9068H249.714L273.999 41.9552L249.714 0Z" fill="#F17068"/>
<path d="M210.856 291.255L154.918 291.443L154.807 284.622L210.744 284.431L210.856 291.255Z" fill="#EA636A"/>
<path d="M179.163 294.097L126.269 294.278L125.857 269.531L139.983 269.482L139.159 261.265L153.502 259.837L154.462 269.451C158.465 269.539 162.39 270.573 165.914 272.469C169.438 274.365 172.46 277.068 174.732 280.357C175.012 280.764 175.284 281.175 175.539 281.6C177.839 285.37 179.09 289.684 179.163 294.097Z" fill="#FFD37C"/>
<path d="M145.01 269.465L153.829 269.437C157.94 269.426 161.991 270.414 165.633 272.316C169.274 274.218 172.396 276.977 174.728 280.353C155.707 286.537 145.115 270.691 145.115 270.691C145.054 270.285 145.019 269.875 145.01 269.465Z" fill="#EA636A"/>
<path d="M180.831 296.479L124.893 296.667L124.781 289.845L180.719 289.654L180.831 296.479Z" fill="#EA636A"/>
</g>
<defs>
<filter id="filter0_d_137_17574" x="0" y="0" width="278" height="304.667" filterUnits="userSpaceOnUse" color-interpolation-filters="sRGB">
<feFlood flood-opacity="0" result="BackgroundImageFix"/>
<feColorMatrix in="SourceAlpha" type="matrix" values="0 0 0 0 0 0 0 0 0 0 0 0 0 0 0 0 0 0 127 0" result="hardAlpha"/>
<feOffset dy="4"/>
<feGaussianBlur stdDeviation="2"/>
<feComposite in2="hardAlpha" operator="out"/>
<feColorMatrix type="matrix" values="0 0 0 0 0 0 0 0 0 0 0 0 0 0 0 0 0 0 0.25 0"/>
<feBlend mode="normal" in2="BackgroundImageFix" result="effect1_dropShadow_137_17574"/>
<feBlend mode="normal" in="SourceGraphic" in2="effect1_dropShadow_137_17574" result="shape"/>
</filter>
</defs>
</svg>
